<svg width="29" height="29" viewBox="0 0 29 29" fill="none" xmlns="http://www.w3.org/2000/svg">
<path d="M24.1667 4.83325H4.83335C3.50419 4.83325 2.41669 5.92075 2.41669 7.24992V21.7499C2.41669 23.0791 3.50419 24.1666 4.83335 24.1666H24.1667C25.4959 24.1666 26.5834 23.0791 26.5834 21.7499V7.24992C26.5834 5.92075 25.4959 4.83325 24.1667 4.83325ZM23.6834 9.96867L15.7809 14.9108C14.9954 15.4062 14.0046 15.4062 13.2192 14.9108L5.31669 9.96867C5.0146 9.77533 4.83335 9.44909 4.83335 9.09867C4.83335 8.28909 5.71544 7.80575 6.40419 8.22867L14.5 13.2916L22.5959 8.22867C23.2846 7.80575 24.1667 8.28909 24.1667 9.09867C24.1667 9.44909 23.9854 9.77533 23.6834 9.96867Z" fill="#1C1C1C"/>
</svg>
